<mxfile host="app.diagrams.net" modified="2024-02-21T14:14:34.595Z" agent="Mozilla/5.0 (Windows NT 10.0; Win64; x64) AppleWebKit/537.36 (KHTML, like Gecko) Chrome/120.0.0.0 Safari/537.36 OPR/106.0.0.0" version="23.1.5" etag="sqK8csc-U1NUeL_qemV_" type="github">
  <diagram name="Page-1" id="LzD3VlkZ5UMntX06w79H">
    <mxGraphModel>
      <root>
        <mxCell id="0" />
        <mxCell id="1" parent="0" />
      </root>
    </mxGraphModel>
  </diagram>
</mxfile>
